<svg id="visual" viewBox="0 0 1920 1080" width="1920" height="1080" xmlns="http://www.w3.org/2000/svg" xmlns:xlink="http://www.w3.org/1999/xlink" version="1.1"><rect x="0" y="0" width="1920" height="1080" fill="#cbcafe"></rect><path d="M0 802L64 767.5C128 733 256 664 384 563.2C512 462.3 640 329.7 768 264.3C896 199 1024 201 1152 278.3C1280 355.7 1408 508.3 1536 607.3C1664 706.3 1792 751.7 1856 774.3L1920 797L1920 1081L1856 1081C1792 1081 1664 1081 1536 1081C1408 1081 1280 1081 1152 1081C1024 1081 896 1081 768 1081C640 1081 512 1081 384 1081C256 1081 128 1081 64 1081L0 1081Z" fill="#d3d6ff"></path><path d="M0 489L64 549.3C128 609.7 256 730.3 384 754.5C512 778.7 640 706.3 768 716C896 725.7 1024 817.3 1152 848.7C1280 880 1408 851 1536 774.5C1664 698 1792 574 1856 512L1920 450L1920 1081L1856 1081C1792 1081 1664 1081 1536 1081C1408 1081 1280 1081 1152 1081C1024 1081 896 1081 768 1081C640 1081 512 1081 384 1081C256 1081 128 1081 64 1081L0 1081Z" fill="#dae6ff"></path></svg>