<svg id="visual" viewBox="0 0 1920 1080" width="1920" height="1080" xmlns="http://www.w3.org/2000/svg" xmlns:xlink="http://www.w3.org/1999/xlink" version="1.1"><rect x="0" y="0" width="1920" height="1080" fill="#cbdcff"></rect><path d="M0 342L45.7 308.7C91.3 275.3 182.7 208.7 274.2 209.5C365.7 210.3 457.3 278.7 548.8 324.5C640.3 370.3 731.7 393.7 823 381.5C914.3 369.3 1005.7 321.7 1097 334.5C1188.3 347.3 1279.7 420.7 1371.2 421.7C1462.7 422.7 1554.3 351.3 1645.8 338.8C1737.3 326.3 1828.7 372.7 1874.3 395.8L1920 419L1920 1081L1874.3 1081C1828.7 1081 1737.3 1081 1645.8 1081C1554.3 1081 1462.7 1081 1371.2 1081C1279.7 1081 1188.3 1081 1097 1081C1005.7 1081 914.3 1081 823 1081C731.7 1081 640.3 1081 548.8 1081C457.3 1081 365.7 1081 274.2 1081C182.7 1081 91.3 1081 45.7 1081L0 1081Z" fill="#8894fe"></path><path d="M0 559L45.7 603C91.3 647 182.7 735 274.2 787C365.7 839 457.3 855 548.8 793.2C640.3 731.3 731.7 591.7 823 535.7C914.3 479.7 1005.7 507.3 1097 588.8C1188.3 670.3 1279.7 805.7 1371.2 826C1462.7 846.3 1554.3 751.7 1645.8 686.2C1737.3 620.7 1828.7 584.3 1874.3 566.2L1920 548L1920 1081L1874.3 1081C1828.7 1081 1737.3 1081 1645.8 1081C1554.3 1081 1462.7 1081 1371.2 1081C1279.7 1081 1188.3 1081 1097 1081C1005.7 1081 914.3 1081 823 1081C731.7 1081 640.3 1081 548.8 1081C457.3 1081 365.7 1081 274.2 1081C182.7 1081 91.3 1081 45.7 1081L0 1081Z" fill="#dfd5ff"></path></svg>