<svg id="visual" viewBox="0 0 1920 1080" width="1920" height="1080" xmlns="http://www.w3.org/2000/svg" xmlns:xlink="http://www.w3.org/1999/xlink" version="1.1"><rect x="0" y="0" width="1920" height="1080" fill="#dae6ff"></rect><path d="M0 553L64 538.7C128 524.3 256 495.7 384 506.2C512 516.7 640 566.3 768 549C896 531.7 1024 447.3 1152 391.8C1280 336.3 1408 309.7 1536 344.3C1664 379 1792 475 1856 523L1920 571L1920 1081L1856 1081C1792 1081 1664 1081 1536 1081C1408 1081 1280 1081 1152 1081C1024 1081 896 1081 768 1081C640 1081 512 1081 384 1081C256 1081 128 1081 64 1081L0 1081Z" fill="#cbcafe"></path><path d="M0 684L64 690C128 696 256 708 384 717.5C512 727 640 734 768 772.5C896 811 1024 881 1152 863.8C1280 846.7 1408 742.3 1536 695.7C1664 649 1792 660 1856 665.5L1920 671L1920 1081L1856 1081C1792 1081 1664 1081 1536 1081C1408 1081 1280 1081 1152 1081C1024 1081 896 1081 768 1081C640 1081 512 1081 384 1081C256 1081 128 1081 64 1081L0 1081Z" fill="#ced3fe"></path></svg>