<svg id="svg" version="1.1" xmlns="http://www.w3.org/2000/svg" xmlns:xlink="http://www.w3.org/1999/xlink" width="400" height="400" viewBox="0, 0, 400,400"><g id="svgg"><path id="path0" d="M54.000 24.001 C 40.396 25.583,28.316 36.948,25.405 50.903 C 24.879 53.424,24.801 62.927,24.800 124.100 L 24.800 194.400 41.800 194.400 L 58.800 194.400 58.800 126.480 C 58.800 74.187,58.910 58.450,59.280 58.080 C 60.222 57.138,92.275 57.419,92.786 58.374 C 93.067 58.898,93.200 80.922,93.200 126.774 L 93.200 194.400 110.199 194.400 L 127.198 194.400 127.299 126.100 L 127.400 57.800 143.600 57.689 C 152.510 57.628,160.205 57.676,160.700 57.796 L 161.600 58.015 161.600 126.208 L 161.600 194.400 178.610 194.400 L 195.619 194.400 195.487 123.100 C 195.344 46.207,195.497 51.917,193.419 45.889 C 190.178 36.484,182.102 28.838,171.456 25.092 L 167.800 23.807 112.200 23.753 C 81.620 23.723,55.430 23.835,54.000 24.001 M235.200 23.995 C 223.849 25.287,212.819 34.124,208.233 45.600 C 206.109 50.916,206.253 45.663,206.113 122.900 L 205.983 194.400 222.989 194.400 L 239.995 194.400 240.098 160.500 L 240.200 126.600 291.400 126.600 L 342.600 126.600 342.702 160.500 L 342.805 194.400 359.808 194.400 L 376.811 194.400 376.702 123.100 C 376.581 43.647,376.820 50.414,373.906 44.000 C 369.651 34.633,362.317 28.243,351.800 24.734 L 349.000 23.800 293.400 23.750 C 262.820 23.722,236.630 23.832,235.200 23.995 M342.356 58.146 C 342.681 58.539,342.780 63.359,342.704 75.246 L 342.600 91.800 291.400 91.800 L 240.200 91.800 240.096 75.246 C 240.020 63.359,240.119 58.539,240.444 58.146 C 241.122 57.330,341.678 57.330,342.356 58.146 M25.600 220.799 L 25.600 238.000 59.557 238.000 C 90.153 238.000,93.538 238.063,93.757 238.633 C 94.202 239.793,94.034 339.188,93.586 340.026 C 93.182 340.782,92.380 340.800,59.386 340.800 L 25.600 340.800 25.600 357.801 L 25.600 374.802 110.900 374.701 L 196.200 374.600 196.304 357.702 L 196.409 340.804 162.304 340.702 L 128.200 340.600 128.200 289.400 L 128.200 238.200 162.200 238.000 L 196.200 237.800 196.200 220.800 L 196.200 203.800 110.900 203.699 L 25.600 203.598 25.600 220.799 M206.185 204.100 C 206.080 204.375,206.041 242.850,206.097 289.600 L 206.200 374.600 223.098 374.704 L 239.996 374.809 240.098 340.704 L 240.200 306.600 291.400 306.600 L 342.600 306.600 342.800 340.600 L 343.000 374.600 359.900 374.704 L 376.800 374.809 376.800 289.200 L 376.800 203.591 359.900 203.696 L 343.000 203.800 342.800 237.800 L 342.600 271.800 291.400 271.800 L 240.200 271.800 240.098 237.700 L 239.996 203.600 223.185 203.600 C 210.105 203.600,206.333 203.711,206.185 204.100 " stroke="none" fill="#fbfbfb" fill-rule="evenodd"></path><path id="path1" d="M13.300 0.291 C 12.365 0.376,11.600 0.616,11.600 0.823 C 11.600 1.030,11.240 1.200,10.800 1.200 C 10.360 1.200,10.000 1.380,10.000 1.600 C 10.000 1.820,9.757 2.000,9.459 2.000 C 9.162 2.000,8.354 2.540,7.663 3.200 C 6.972 3.860,6.213 4.400,5.975 4.400 C 5.447 4.400,4.400 5.405,4.400 5.912 C 4.400 6.115,3.860 6.846,3.200 7.537 C 2.540 8.228,2.000 9.064,2.000 9.396 C 2.000 9.728,1.820 10.000,1.600 10.000 C 1.380 10.000,1.200 10.345,1.200 10.767 C 1.200 11.188,0.975 11.608,0.700 11.700 C -0.036 11.945,-0.036 388.055,0.700 388.300 C 0.975 388.392,1.200 388.812,1.200 389.233 C 1.200 389.655,1.380 390.000,1.600 390.000 C 1.820 390.000,2.000 390.288,2.000 390.640 C 2.000 390.991,2.540 391.783,3.200 392.400 C 3.860 393.017,4.400 393.743,4.400 394.014 C 4.400 394.578,6.393 396.399,7.012 396.400 C 7.238 396.400,7.683 396.760,8.000 397.200 C 8.317 397.640,8.897 398.000,9.288 398.000 C 9.680 398.000,10.000 398.180,10.000 398.400 C 10.000 398.620,10.345 398.800,10.767 398.800 C 11.188 398.800,11.608 399.025,11.700 399.300 C 11.945 400.036,388.055 400.036,388.300 399.300 C 388.392 399.025,388.812 398.800,389.233 398.800 C 389.655 398.800,390.000 398.620,390.000 398.400 C 390.000 398.180,390.272 398.000,390.604 398.000 C 390.936 398.000,391.772 397.460,392.463 396.800 C 393.154 396.140,393.885 395.600,394.088 395.600 C 394.595 395.600,395.600 394.553,395.600 394.025 C 395.600 393.787,396.140 393.028,396.800 392.337 C 397.460 391.646,398.000 390.838,398.000 390.541 C 398.000 390.243,398.180 390.000,398.400 390.000 C 398.620 390.000,398.800 389.655,398.800 389.233 C 398.800 388.812,399.025 388.392,399.300 388.300 C 400.036 388.055,400.036 11.945,399.300 11.700 C 399.025 11.608,398.800 11.188,398.800 10.767 C 398.800 10.345,398.620 10.000,398.400 10.000 C 398.180 10.000,398.000 9.728,398.000 9.396 C 398.000 9.064,397.460 8.228,396.800 7.537 C 396.140 6.846,395.600 6.115,395.600 5.912 C 395.600 5.405,394.553 4.400,394.025 4.400 C 393.787 4.400,393.028 3.860,392.337 3.200 C 391.646 2.540,390.838 2.000,390.541 2.000 C 390.243 2.000,390.000 1.820,390.000 1.600 C 390.000 1.380,389.655 1.200,389.233 1.200 C 388.812 1.200,388.392 0.975,388.300 0.700 C 388.143 0.229,18.408 -0.174,13.300 0.291 M171.456 25.092 C 182.102 28.838,190.178 36.484,193.419 45.889 C 195.497 51.917,195.344 46.207,195.487 123.100 L 195.619 194.400 178.610 194.400 L 161.600 194.400 161.600 126.208 L 161.600 58.015 160.700 57.796 C 160.205 57.676,152.510 57.628,143.600 57.689 L 127.400 57.800 127.299 126.100 L 127.198 194.400 110.199 194.400 L 93.200 194.400 93.200 126.774 C 93.200 80.922,93.067 58.898,92.786 58.374 C 92.275 57.419,60.222 57.138,59.280 58.080 C 58.910 58.450,58.800 74.187,58.800 126.480 L 58.800 194.400 41.800 194.400 L 24.800 194.400 24.800 124.100 C 24.801 62.927,24.879 53.424,25.405 50.903 C 28.316 36.948,40.396 25.583,54.000 24.001 C 55.430 23.835,81.620 23.723,112.200 23.753 L 167.800 23.807 171.456 25.092 M351.800 24.734 C 362.317 28.243,369.651 34.633,373.906 44.000 C 376.820 50.414,376.581 43.647,376.702 123.100 L 376.811 194.400 359.808 194.400 L 342.805 194.400 342.702 160.500 L 342.600 126.600 291.400 126.600 L 240.200 126.600 240.098 160.500 L 239.995 194.400 222.989 194.400 L 205.983 194.400 206.113 122.900 C 206.253 45.663,206.109 50.916,208.233 45.600 C 212.819 34.124,223.849 25.287,235.200 23.995 C 236.630 23.832,262.820 23.722,293.400 23.750 L 349.000 23.800 351.800 24.734 M240.444 58.146 C 240.119 58.539,240.020 63.359,240.096 75.246 L 240.200 91.800 291.400 91.800 L 342.600 91.800 342.704 75.246 C 342.780 63.359,342.681 58.539,342.356 58.146 C 341.678 57.330,241.122 57.330,240.444 58.146 M196.200 220.800 L 196.200 237.800 162.200 238.000 L 128.200 238.200 128.200 289.400 L 128.200 340.600 162.304 340.702 L 196.409 340.804 196.304 357.702 L 196.200 374.600 110.900 374.701 L 25.600 374.802 25.600 357.801 L 25.600 340.800 59.386 340.800 C 92.380 340.800,93.182 340.782,93.586 340.026 C 94.034 339.188,94.202 239.793,93.757 238.633 C 93.538 238.063,90.153 238.000,59.557 238.000 L 25.600 238.000 25.600 220.799 L 25.600 203.598 110.900 203.699 L 196.200 203.800 196.200 220.800 M240.098 237.700 L 240.200 271.800 291.400 271.800 L 342.600 271.800 342.800 237.800 L 343.000 203.800 359.900 203.696 L 376.800 203.591 376.800 289.200 L 376.800 374.809 359.900 374.704 L 343.000 374.600 342.800 340.600 L 342.600 306.600 291.400 306.600 L 240.200 306.600 240.098 340.704 L 239.996 374.809 223.098 374.704 L 206.200 374.600 206.097 289.600 C 206.041 242.850,206.080 204.375,206.185 204.100 C 206.333 203.711,210.105 203.600,223.185 203.600 L 239.996 203.600 240.098 237.700 " stroke="none" fill="#e40c04" fill-rule="evenodd"></path></g></svg>